<?xml version="1.0" encoding="utf-8"?>
<!-- Generator: Adobe Illustrator 23.0.1, SVG Export Plug-In . SVG Version: 6.00 Build 0)  -->
<svg id="wholeBandaid" class="icons" version="1.1" xmlns="http://www.w3.org/2000/svg" xmlns:xlink="http://www.w3.org/1999/xlink" x="0px" y="0px"
	 viewBox="0 0 364.03 359.24" style="enable-background:new 0 0 364.03 359.24;" xml:space="preserve">
<style type="text/css">
	.st0{fill:#000000;}
	.st1{fill:#000000;}
    
    #wholeBandaid:hover .st0 {fill:#9CFF88;}
    #wholeBandaid:hover .st1 {fill:#000000;}
</style>
<defs>
    <script xlink:href="../js/main.js" type="text/javascript">
    </script>
</defs>
<g id="bandAidBottom">
	<path class="st0" d="M3.6,85.13l276.95,270.7c4.72,4.61,12.36,4.53,16.97-0.19l63.11-64.57c4.61-4.72,4.53-12.36-0.19-16.97
		L83.48,3.4C78.76-1.21,71.13-1.12,66.51,3.6L3.4,68.16C-1.21,72.88-1.12,80.52,3.6,85.13z"/>
	<path id="darkBottom" class="st1" d="M107.89,159.6l91.17,89.11c4.72,4.61,12.36,4.53,16.97-0.19l36.78-37.63
		c4.61-4.72,4.53-12.36-0.19-16.97l-91.17-89.11c-4.72-4.61-12.36-4.53-16.97,0.19l-36.78,37.63
		C103.08,147.36,103.17,154.99,107.89,159.6z"/>
</g>
<g id="bandAid">
	<path class="st0" d="M360.44,85.13L83.48,355.84c-4.72,4.61-12.36,4.53-16.97-0.19L3.4,291.08c-4.61-4.72-4.53-12.36,0.19-16.97
		L280.55,3.4c4.72-4.61,12.36-4.53,16.97,0.19l63.11,64.57C365.24,72.88,365.16,80.52,360.44,85.13z"/>
	<path id="darkTop" class="st1" d="M256.15,159.6l-91.17,89.11c-4.72,4.61-12.36,4.53-16.97-0.19l-36.78-37.63
		c-4.61-4.72-4.53-12.36,0.19-16.97l91.17-89.11c4.72-4.61,12.36-4.53,16.97,0.19l36.78,37.63
		C260.96,147.36,260.87,154.99,256.15,159.6z"/>
</g>
<g id="bandAidDots">
	<circle class="st1" cx="22.36" cy="278.9" r="5.19"/>
	<circle class="st1" cx="36.17" cy="265.31" r="5.19"/>
	<circle class="st1" cx="49.78" cy="252.24" r="5.19"/>
	<circle class="st1" cx="63.13" cy="239.52" r="5.19"/>
	<circle class="st1" cx="76.94" cy="225.93" r="5.19"/>
	<circle class="st1" cx="90.56" cy="212.87" r="5.19"/>
	<circle class="st1" cx="28.31" cy="295.21" r="5.19"/>
	<circle class="st1" cx="42.12" cy="281.63" r="5.19"/>
	<circle class="st1" cx="55.74" cy="268.56" r="5.19"/>
	<circle class="st1" cx="69.08" cy="255.84" r="5.19"/>
	<circle class="st1" cx="82.89" cy="242.25" r="5.19"/>
	<circle class="st1" cx="96.51" cy="229.18" r="5.19"/>
	<circle class="st1" cx="46.48" cy="301.02" r="5.19"/>
	<circle class="st1" cx="60.29" cy="287.43" r="5.19"/>
	<circle class="st1" cx="73.9" cy="274.36" r="5.19"/>
	<circle class="st1" cx="87.25" cy="261.64" r="5.19"/>
	<circle class="st1" cx="101.06" cy="248.06" r="5.19"/>
	<circle class="st1" cx="114.68" cy="234.99" r="5.19"/>
	<circle class="st1" cx="52.43" cy="317.34" r="5.19"/>
	<circle class="st1" cx="66.24" cy="303.75" r="5.19"/>
	<circle class="st1" cx="79.86" cy="290.68" r="5.19"/>
	<circle class="st1" cx="93.21" cy="277.96" r="5.19"/>
	<circle class="st1" cx="107.01" cy="264.37" r="5.19"/>
	<circle class="st1" cx="120.63" cy="251.3" r="5.19"/>
	<circle class="st1" cx="69.28" cy="324.34" r="5.19"/>
	<circle class="st1" cx="83.09" cy="310.76" r="5.19"/>
	<circle class="st1" cx="96.7" cy="297.69" r="5.19"/>
	<circle class="st1" cx="110.05" cy="284.97" r="5.19"/>
	<circle class="st1" cx="123.86" cy="271.38" r="5.19"/>
	<circle class="st1" cx="137.48" cy="258.31" r="5.19"/>
	<circle class="st1" cx="75.23" cy="340.66" r="5.19"/>
	<circle class="st1" cx="89.04" cy="327.08" r="5.19"/>
	<circle class="st1" cx="102.66" cy="314.01" r="5.19"/>
	<circle class="st1" cx="116" cy="301.29" r="5.19"/>
	<circle class="st1" cx="129.81" cy="287.7" r="5.19"/>
	<circle class="st1" cx="143.43" cy="274.63" r="5.19"/>
	<circle class="st1" cx="288.79" cy="18.48" r="5.19"/>
	<circle class="st1" cx="274.89" cy="31.97" r="5.19"/>
	<circle class="st1" cx="261.52" cy="45.29" r="5.19"/>
	<circle class="st1" cx="248.49" cy="58.34" r="5.19"/>
	<circle class="st1" cx="234.6" cy="71.84" r="5.19"/>
	<circle class="st1" cx="221.22" cy="85.15" r="5.19"/>
	<circle class="st1" cx="304.97" cy="24.8" r="5.19"/>
	<circle class="st1" cx="291.07" cy="38.3" r="5.19"/>
	<circle class="st1" cx="277.69" cy="51.61" r="5.19"/>
	<circle class="st1" cx="264.67" cy="64.67" r="5.19"/>
	<circle class="st1" cx="250.77" cy="78.16" r="5.19"/>
	<circle class="st1" cx="237.4" cy="91.47" r="5.19"/>
	<circle class="st1" cx="310.36" cy="43.1" r="5.19"/>
	<circle class="st1" cx="296.46" cy="56.59" r="5.19"/>
	<circle class="st1" cx="283.08" cy="69.91" r="5.19"/>
	<circle class="st1" cx="270.06" cy="82.96" r="5.19"/>
	<circle class="st1" cx="256.16" cy="96.46" r="5.19"/>
	<circle class="st1" cx="242.78" cy="109.77" r="5.19"/>
	<circle class="st1" cx="326.53" cy="49.42" r="5.19"/>
	<circle class="st1" cx="312.64" cy="62.92" r="5.19"/>
	<circle class="st1" cx="299.26" cy="76.23" r="5.19"/>
	<circle class="st1" cx="286.24" cy="89.29" r="5.19"/>
	<circle class="st1" cx="272.34" cy="102.78" r="5.19"/>
	<circle class="st1" cx="258.96" cy="116.09" r="5.19"/>
	<circle class="st1" cx="333.16" cy="66.43" r="5.19"/>
	<circle class="st1" cx="319.26" cy="79.92" r="5.19"/>
	<circle class="st1" cx="305.88" cy="93.23" r="5.19"/>
	<circle class="st1" cx="292.86" cy="106.29" r="5.19"/>
	<circle class="st1" cx="278.96" cy="119.78" r="5.19"/>
	<circle class="st1" cx="265.58" cy="133.1" r="5.19"/>
	<circle class="st1" cx="349.33" cy="72.75" r="5.19"/>
	<circle class="st1" cx="335.43" cy="86.24" r="5.19"/>
	<circle class="st1" cx="322.06" cy="99.56" r="5.19"/>
	<circle class="st1" cx="309.04" cy="112.61" r="5.19"/>
	<circle class="st1" cx="295.14" cy="126.11" r="5.19"/>
	<circle class="st1" cx="281.76" cy="139.42" r="5.19"/>
	<circle class="st1" cx="341.68" cy="278.9" r="5.19"/>
	<circle class="st1" cx="327.87" cy="265.31" r="5.19"/>
	<circle class="st1" cx="314.25" cy="252.24" r="5.19"/>
	<circle class="st1" cx="300.9" cy="239.52" r="5.19"/>
	<circle class="st1" cx="287.09" cy="225.93" r="5.19"/>
	<circle class="st1" cx="273.48" cy="212.87" r="5.19"/>
	<circle class="st1" cx="335.72" cy="295.21" r="5.19"/>
	<circle class="st1" cx="321.91" cy="281.63" r="5.19"/>
	<circle class="st1" cx="308.3" cy="268.56" r="5.19"/>
	<circle class="st1" cx="294.95" cy="255.84" r="5.19"/>
	<circle class="st1" cx="281.14" cy="242.25" r="5.19"/>
	<circle class="st1" cx="267.53" cy="229.18" r="5.19"/>
	<circle class="st1" cx="317.55" cy="301.02" r="5.19"/>
	<circle class="st1" cx="303.74" cy="287.43" r="5.19"/>
	<circle class="st1" cx="290.13" cy="274.36" r="5.19"/>
	<circle class="st1" cx="276.78" cy="261.64" r="5.19"/>
	<circle class="st1" cx="262.97" cy="248.06" r="5.19"/>
	<circle class="st1" cx="249.36" cy="234.99" r="5.19"/>
	<circle class="st1" cx="311.6" cy="317.34" r="5.19"/>
	<circle class="st1" cx="297.79" cy="303.75" r="5.19"/>
	<circle class="st1" cx="284.18" cy="290.68" r="5.19"/>
	<circle class="st1" cx="270.83" cy="277.96" r="5.19"/>
	<circle class="st1" cx="257.02" cy="264.37" r="5.19"/>
	<circle class="st1" cx="243.41" cy="251.3" r="5.19"/>
	<circle class="st1" cx="294.76" cy="324.34" r="5.19"/>
	<circle class="st1" cx="280.95" cy="310.76" r="5.19"/>
	<circle class="st1" cx="267.33" cy="297.69" r="5.19"/>
	<circle class="st1" cx="253.98" cy="284.97" r="5.19"/>
	<circle class="st1" cx="240.17" cy="271.38" r="5.19"/>
	<circle class="st1" cx="226.56" cy="258.31" r="5.19"/>
	<circle class="st1" cx="288.8" cy="340.66" r="5.19"/>
	<circle class="st1" cx="274.99" cy="327.08" r="5.19"/>
	<circle class="st1" cx="261.38" cy="314.01" r="5.19"/>
	<circle class="st1" cx="248.03" cy="301.29" r="5.19"/>
	<circle class="st1" cx="234.22" cy="287.7" r="5.19"/>
	<circle class="st1" cx="220.61" cy="274.63" r="5.19"/>
	<circle class="st1" cx="75.24" cy="18.48" r="5.19"/>
	<circle class="st1" cx="89.14" cy="31.97" r="5.19"/>
	<circle class="st1" cx="102.52" cy="45.29" r="5.19"/>
	<circle class="st1" cx="115.54" cy="58.34" r="5.19"/>
	<circle class="st1" cx="129.44" cy="71.84" r="5.19"/>
	<circle class="st1" cx="142.82" cy="85.15" r="5.19"/>
	<circle class="st1" cx="59.07" cy="24.8" r="5.19"/>
	<circle class="st1" cx="72.96" cy="38.3" r="5.19"/>
	<circle class="st1" cx="86.34" cy="51.61" r="5.19"/>
	<circle class="st1" cx="99.36" cy="64.67" r="5.19"/>
	<circle class="st1" cx="113.26" cy="78.16" r="5.19"/>
	<circle class="st1" cx="126.64" cy="91.47" r="5.19"/>
	<circle class="st1" cx="53.68" cy="43.1" r="5.19"/>
	<circle class="st1" cx="67.58" cy="56.59" r="5.19"/>
	<circle class="st1" cx="80.95" cy="69.91" r="5.19"/>
	<circle class="st1" cx="93.97" cy="82.96" r="5.19"/>
	<circle class="st1" cx="107.87" cy="96.46" r="5.19"/>
	<circle class="st1" cx="121.25" cy="109.77" r="5.19"/>
	<circle class="st1" cx="37.5" cy="49.42" r="5.19"/>
	<circle class="st1" cx="51.4" cy="62.92" r="5.19"/>
	<circle class="st1" cx="64.78" cy="76.23" r="5.19"/>
	<circle class="st1" cx="77.8" cy="89.29" r="5.19"/>
	<circle class="st1" cx="91.7" cy="102.78" r="5.19"/>
	<circle class="st1" cx="105.07" cy="116.09" r="5.19"/>
	<circle class="st1" cx="30.88" cy="66.43" r="5.19"/>
	<circle class="st1" cx="44.78" cy="79.92" r="5.19"/>
	<circle class="st1" cx="58.15" cy="93.23" r="5.19"/>
	<circle class="st1" cx="71.18" cy="106.29" r="5.19"/>
	<circle class="st1" cx="85.07" cy="119.78" r="5.19"/>
	<circle class="st1" cx="98.45" cy="133.1" r="5.19"/>
	<circle class="st1" cx="14.7" cy="72.75" r="5.19"/>
	<circle class="st1" cx="28.6" cy="86.24" r="5.19"/>
	<circle class="st1" cx="41.98" cy="99.56" r="5.19"/>
	<circle class="st1" cx="55" cy="112.61" r="5.19"/>
	<circle class="st1" cx="68.9" cy="126.11" r="5.19"/>
	<circle class="st1" cx="82.27" cy="139.42" r="5.19"/>
</g>
</svg>
