<?xml version="1.0" encoding="utf-8"?>
<!-- Generator: Adobe Illustrator 23.0.1, SVG Export Plug-In . SVG Version: 6.00 Build 0)  -->
<svg id="wholeDna" class="icons" version="1.1" xmlns="http://www.w3.org/2000/svg" xmlns:xlink="http://www.w3.org/1999/xlink" x="0px" y="0px"
	 viewBox="0 0 159.32 314.51" style="enable-background:new 0 0 159.32 314.51;" xml:space="preserve">
<style type="text/css">
	.st0{fill:none;stroke:#000000;stroke-width:13;stroke-linecap:round;stroke-miterlimit:10;}
	.st1{fill:none;stroke:#000000;stroke-width:13;stroke-miterlimit:10;}
	.st2{fill:none;stroke:#000000;stroke-width:11;stroke-linecap:round;stroke-miterlimit:10;}
	.st3{fill:none;stroke:#000000;stroke-width:23;stroke-linecap:round;stroke-miterlimit:10;}
    
    #wholeDna:hover .st0 {stroke:#9CFF88;}
    #wholeDna:hover .st2 {stroke:#9CFF88;}
    #wholeDna:hover .st3 {stroke:#000000;}
</style>
<defs>
    <script xlink:href="../js/main.js" type="text/javascript">
    </script>
</defs>
<g id="bigStrand">
	<line class="st0" x1="14.65" y1="156.93" x2="138.73" y2="156.41"/>
	<line class="st0" x1="16.69" y1="287.95" x2="141.03" y2="288.46"/>
	<line class="st0" x1="22.14" y1="24.95" x2="140.26" y2="24.95"/>
</g>
<g id="smallStrand">
	<line class="st2" x1="35.07" y1="261.61" x2="118.05" y2="261.61"/>
	<line class="st2" x1="33.03" y1="51.56" x2="126.99" y2="51.22"/>
	<line class="st2" x1="29.29" y1="127.84" x2="128.01" y2="127.5"/>
	<line class="st2" x1="33.03" y1="188.59" x2="124.95" y2="188.07"/>
</g>
<g id="helix">
	<path class="st3" d="M11.65,300.07c0,0-6.53-39.15,67.34-72.68c67.38-30.58,65.7-64.85,65.7-64.85s6.3-44.94-67.74-73.02
		S12.09,12.69,12.09,12.69"/>
	<path class="st3" d="M146.99,11.5c0,0,13.7,43.13-70.04,78.02s-62.94,83.7-62.94,83.7s6.43,27.79,64.98,54.17
		s64.64,40.55,65.66,75.62"/>
</g>
</svg>
