<?xml version="1.0" encoding="utf-8"?>
<!-- Generator: Adobe Illustrator 23.0.1, SVG Export Plug-In . SVG Version: 6.00 Build 0)  -->
<svg id="wholeCase" class="icons" version="1.1" xmlns="http://www.w3.org/2000/svg" xmlns:xlink="http://www.w3.org/1999/xlink" x="0px" y="0px"
	 viewBox="0 0 347.86 258.39" style="enable-background:new 0 0 347.86 258.39;" xml:space="preserve">
<style type="text/css">
	.st0{stroke:#000000;stroke-miterlimit:10;}
	.st1{fill:#000000;}
    
    #wholeCase:hover .st1 {fill:#22CFE0;}
</style>
<defs>
    <script xlink:href="../js/main.js" type="text/javascript">
    </script>
</defs>
<g id="case">
	<path class="st0" d="M335.36,257.89H12.5c-6.6,0-12-5.4-12-12V55.61c0-6.6,5.4-12,12-12h322.86c6.6,0,12,5.4,12,12v190.29
		C347.36,252.49,341.96,257.89,335.36,257.89z"/>
	<polyline points="132.03,11.23 132.03,45.06 115.54,45.86 115.54,0 235.84,0 235.9,45.69 219.07,45.69 219.07,11.23 	"/>
</g>
<g id="cross">
	
		<rect x="153.98" y="83.12" transform="matrix(-1.836970e-16 1 -1 -1.836970e-16 325.7857 -22.441)" class="st1" width="40.27" height="137.11"/>
	<rect x="153.98" y="83.12" class="st1" width="40.27" height="137.11"/>
</g>
</svg>
