<?xml version="1.0" encoding="utf-8"?>
<!-- Generator: Adobe Illustrator 23.0.1, SVG Export Plug-In . SVG Version: 6.00 Build 0)  -->
<svg id="wholeNeedle" class="icons" version="1.1" xmlns="http://www.w3.org/2000/svg" xmlns:xlink="http://www.w3.org/1999/xlink" x="0px" y="0px"
	 viewBox="0 0 443.34 433.4" style="enable-background:new 0 0 443.34 433.4;" xml:space="preserve">
<style type="text/css">
	
	.st1{fill:none;stroke:#000000;stroke-width:3;stroke-linecap:round;stroke-linejoin:round;stroke-miterlimit:10;}
    

    #wholeNeedle:hover .st1 {stroke:#A2FC87;}
</style>
<defs>
    <script xlink:href="../js/main.js">
    </script>
</defs>

<g id="Layer_4">
</g>
<g id="needle">
	<path d="M104.23,103.45l5.27,6.65c0.01,0.01,0.01,0.02,0.02,0.02l7.26,11.08c0.01,0.01,0.01,0.02,0.02,0.03
		c0.26,0.31,7.01,8.4,17.9,19.8c0.12,0.13,0.13,0.34,0,0.47l-3.9,4.12c-0.13,0.13-0.12,0.34,0.01,0.47l13.56,13.56
		c0,0,7.03,6.2,2.3,14.52c-1.14,2.01-1.36,4.41-0.43,6.52l0.11,0.26c1.22,2.8,2.96,5.34,5.12,7.49L347.64,383.6
		c0.12,0.12,0.14,0.3,0.04,0.44c-0.88,1.18-4.85,6.64-6.21,10.49c-1.34,3.8,2.25,6.77,7.15,4.85c5.87-2.3,11.23-6.64,12-7.91
		c0.73-1.21,25.08,23.73,27.62,26.33c0.12,0.12,0.13,0.31,0.02,0.45c-1.11,1.33-6.57,8.1-5.42,11.77c1.26,4.02,8.46-0.62,8.68-0.76
		c0.01-0.01,0,0,0.01-0.01c0.29-0.23,16.25-12.53,27-23.4c9.3-9.41,16.13-19.5,19.76-25.14c1.14-1.77,1.01-4.07-0.31-5.7l-0.07-0.09
		c-0.03-0.04-0.06-0.06-0.1-0.09c-0.49-0.25-4.06-1.69-11.57,4.8c-0.14,0.12-0.34,0.12-0.46-0.01
		c-4.15-4.35-24.24-23.58-26.62-25.85c-0.13-0.12-0.14-0.32-0.02-0.46c1.58-1.81,11.58-13.44,12.04-18.32
		c0.01-0.06,0-0.11-0.02-0.17c-1.83-5.12-8.65-2.72-8.65-2.72s-4.69,1.73-9.09,6.15c-0.13,0.13-0.33,0.14-0.46,0.02
		c-14.74-13.34-198.26-199.2-202.66-200.9c-2.83-1.99-6.03,0.01-6.43,0.27c-0.03,0.02-0.05,0.03-0.07,0.06
		c-0.47,0.56-7.22,8.25-16.7-2.58c-8.3-9.49-11.6-11.96-12.42-12.51c-0.13-0.08-0.29-0.07-0.4,0.02l-4.06,3.44
		c-0.13,0.11-0.31,0.11-0.44,0l-20.7-17.5c-0.01-0.01-0.03-0.02-0.04-0.03l-11.83-7.12c-0.01-0.01-0.03-0.02-0.04-0.03l-5.71-4.59
		c-0.09-0.07-0.2-0.09-0.3-0.06c-0.64,0.19-3.07,0.77-5.42-0.69C103,94.36,10.83,6.19,10.83,6.19L103,97.85c0,0,1.62,1.62,1.17,5.35
		C104.15,103.29,104.18,103.38,104.23,103.45z"/>
</g>
<g id="numbers">
	<line class="st1" x1="177.55" y1="184.23" x2="194.1" y2="166.83"/>
	<line class="st1" x1="191" y1="197.34" x2="207.21" y2="181.3"/>
	<line class="st1" x1="204.61" y1="211.64" x2="220.66" y2="195.43"/>
	<line class="st1" x1="217.72" y1="225.43" x2="233.76" y2="209.21"/>
	<line class="st1" x1="231.51" y1="239.21" x2="247.89" y2="222.66"/>
	<line class="st1" x1="244.78" y1="253" x2="261" y2="236.45"/>
	<line class="st1" x1="258.23" y1="267.13" x2="274.44" y2="250.4"/>
	<line class="st1" x1="271.68" y1="280.23" x2="288.23" y2="263.85"/>
	<line class="st1" x1="285.29" y1="293.68" x2="302.19" y2="277.64"/>
	<line class="st1" x1="298.57" y1="307.98" x2="315.64" y2="290.57"/>
	<line class="st1" x1="311.68" y1="321.6" x2="328.74" y2="304.36"/>
	<line class="st1" x1="325.29" y1="334.87" x2="342.7" y2="318.49"/>
	<path class="st1" d="M196.95,160.91c0,0,0.77-3.19,0.13-4.21c-0.64-1.02,6.89,7.4,6.89,7.4"/>
	<path class="st1" d="M209.59,173.94c0,0-0.89-4.6,2.68-3.32s2.55,6.89,2.55,6.89l0.51,2.17l2.94-2.68"/>
	<path class="st1" d="M223.12,187.34c0,0-0.51-4.21,2.3-2.43c2.81,1.79,1.15,3.45,1.15,3.45s3.83-1.15,4.47,1.66
		c0.64,2.81-2.81,3.06-2.81,3.06"/>
	<polyline class="st1" points="244.06,202.4 240.23,206.49 238.19,197.94 245.21,205.34 	"/>
	<path class="st1" d="M252.1,211.34l-2.3,2.17l2.81,3.32c0,0,1.28-3.19,2.68-2.3c1.4,0.89,2.3,2.17,2.3,2.17s1.66,4.21-2.43,3.7"/>
	<path class="st1" d="M266.15,225.64c0,0-4.09-1.4-2.04,3.57c2.04,4.98,6.26,4.6,6.26,4.6s3.45-0.26,0.26-4.21
		c-3.19-3.96-4.47,1.91-4.47,1.91"/>
	<path class="st1" d="M276.1,241.98l3.45-3.57c0,0,0.26,4.34,4.47,9.96"/>
	<path class="st1" d="M290.23,255.3c0,0-0.26-2.09,1.91-2.38c2.17-0.3,2.47,1.62,2.47,1.62s-0.04,2.3-0.47,3.06s0.13,2.64,0.13,2.64
		s0.34,1.83,2,1.83s2.17-0.81,2.17-0.81s2.3-1.96-0.17-3.74c-2.47-1.79-4.64-0.09-4.64-0.09s-0.68,0.47-1.83,0.04
		S290.23,255.3,290.23,255.3z"/>
	<path class="st1" d="M309.55,275.3c0,0,2.68,1.4,2.43-1.79c-0.26-3.19-4.85-6.13-4.85-6.13s-2.89-1.63-2.94,1.53
		c-0.04,2.72,1.66,3.57,1.66,3.57s1.11,0.64,2.64-0.17s1.49-2.6,1.49-2.6"/>
	<polyline class="st1" points="345.93,312.7 346,308.04 352.7,315.64 	"/>
	<polyline class="st1" points="319,284.74 319.08,280.74 325.81,287.98 	"/>
	<path class="st1" d="M322.4,278.53c0,0,2.81,5.02,5.79,5.96c2.98,0.94,1.36-2.81,1.36-2.81s-2.76-4.24-5.28-5.19
		C321.46,275.43,322.4,278.53,322.4,278.53z"/>
	<polyline class="st1" points="332.21,298.66 332.34,294.06 339.17,301.79 	"/>
	<polyline class="st1" points="336.61,293.87 336.1,290.04 343.06,297.13 	"/>
	<path class="st1" d="M349.44,306.19c0,0-1.53-3.77,0.57-3.26c2.11,0.51,3.7,3.83,3.7,3.83l0.64,3.83l0.89,1.4l1.85-2.87"/>
</g>
</svg>
