<?xml version="1.0" encoding="utf-8"?>
<!-- Generator: Adobe Illustrator 23.0.1, SVG Export Plug-In . SVG Version: 6.00 Build 0)  -->
<svg id="wholePill" class="icons" version="1.1" xmlns="http://www.w3.org/2000/svg" xmlns:xlink="http://www.w3.org/1999/xlink" x="0px" y="0px"
	 viewBox="0 0 177.44 357.14" style="enable-background:new 0 0 177.44 357.14;" xml:space="preserve">
<style type="text/css">
	.st0{fill:#000000;}
	.st1{fill:#000000;}
    
    #wholePill:hover .st0 {fill:#A2FC87;}
    #wholePill:hover .st1 {fill:#22CFE0;}
</style>
<defs>
    <script xlink:href="../js/main.js" type="text/javascript">
    </script>
</defs>
<g id="pillTop">
	<path class="st0" d="M88.72,357.14L88.72,357.14C39.92,357.14,0,317.22,0,268.42V88.72C0,39.92,39.92,0,88.72,0h0
		c48.8,0,88.72,39.92,88.72,88.72v179.7C177.44,317.22,137.52,357.14,88.72,357.14z"/>
</g>
<g id="pillBottom">
	<path class="st1" d="M0.01,178.8c0,0,85.83,37.8,177.23-0.5l0.2,93.13c0,0-0.58,83.14-88.72,85.72C0.58,357.17,0,270.42,0,270.42
		L0.01,178.8z"/>
</g>
<g id="rX">
	<g class="st3">
		<path d="M45.24,203.97v-67.59h29.07c7.56,0,13.6,1.59,18.12,4.78c4.52,3.19,6.78,7.45,6.78,12.8c0,8.19-4.85,13.52-14.56,15.99
			c4.98,1.85,11.32,3.59,13.23,6.19c1.52,2.07,3.58,7.31,6.48,12.77c3.58,6.73,6.53,12.46,8.98,14.9l-20.29,0.15
			c-1.89-3.14-2.57-7.05-2.57-11.74l-3.2,0.5c-1.06-0.89-2.17-3.25-3.04-4.15c-0.91-0.94-1.71-1.93-2.66-3.14l-1.76-2.27
			c-3.91-5.43-11.48-8.37-14.84-8.69h-0.17v29.48H45.24z M64.85,165.89h3.96c7.43,0,11.14-3.88,11.14-11.64
			c0-7.76-3.71-11.64-11.14-11.64h-3.96V165.89z"/>
	</g>
	<g class="st3">
		<path d="M133.08,176.15l-19.14,27.51l22.95,40.08H115.1l-12.97-23.77l-14.41,23.77H78.9l19.06-30.9l-20.4-36.69h20.33l12.08,22.04
			l14.48-22.04H133.08z"/>
	</g>
</g>
</svg>
