<?xml version="1.0" encoding="utf-8"?>
<!-- Generator: Adobe Illustrator 23.0.1, SVG Export Plug-In . SVG Version: 6.00 Build 0)  -->
<svg id="wholeStar" class="icons" version="1.1" xmlns="http://www.w3.org/2000/svg" xmlns:xlink="http://www.w3.org/1999/xlink" x="0px" y="0px"
	 viewBox="0 0 495.8 506.4" style="enable-background:new 0 0 495.8 506.4;" xml:space="preserve">
<style type="text/css">
	.st0{fill:#000000;}
    
    #wholeStar:hover #snake {fill:#9CFF88;}
    #wholeStar:hover #snakeRod {fill:#1FD0E0;}
</style>
<defs>
    <script xlink:href="../js/main.js" type="text/javascript">
    </script>
</defs>
<g id="star">
	<g id="medicalSym">
		<path class="st0" d="M305.9,503H187.9c-6.6,0-12-5.4-12-12V16.6c0-6.6,5.4-12,12-12h118c6.6,0,12,5.4,12,12V491
			C317.9,497.6,312.5,503,305.9,503z"/>
		<path class="st0" d="M60.6,78.2l-59,102.2c-3.3,5.7-1.3,13.1,4.4,16.4l410.8,237.2c5.7,3.3,13.1,1.3,16.4-4.4l59-102.1
			c3.3-5.7,1.3-13.1-4.4-16.4L77,73.8C71.3,70.5,63.9,72.4,60.6,78.2z"/>
		<path class="st0" d="M494.2,180.3l-59-102.2c-3.3-5.7-10.7-7.7-16.4-4.4L8,311c-5.7,3.3-7.7,10.7-4.4,16.4l59,102.1
			c3.3,5.7,10.7,7.7,16.4,4.4l410.8-237.2C495.5,193.4,497.5,186,494.2,180.3z"/>
	</g>
</g>
<g id="snake">
	<path d="M232.8,103.7c0,0,33.8-4.6,52.2,1.6c18.4,6.2,16.5,23.3,16.5,23.3s-21.4,3.8-28.5-14.4c-11-2.7-40.1,4.5-40.1,4.5
		s-15.2,4.8-18.9,18.5c-2,7.3-0.1,14,4,18c5.7,5.6,14.2,7,14.2,7l27.2,5.3c0,0,38.9,11,36.7,42.8c-2.2,31.8-38.8,38.8-38.8,38.8
		l-23.1,7.7c0,0-15.2,5.3-14.1,20.2c1.1,14.9,14.5,18.4,14.5,18.4l20.2,8.1c0,0,20.2,5.5,22.2,25.2s-13,28.8-13,28.8l-9.7,6.2
		l-16.5,7.7c0,0-9.7,4.6-14.9,11.2c-5.1,6.6-9,21.1-9,21.1l-2-0.7c0,0,1.3-26.6,24.8-38l17.4-9.9c0,0,15.2-9.1,13.5-23.4
		c-1.1-12.1-12-15.4-12-15.4l-20.8-7.4c0,0-19.3-5.8-25.8-20.8s1.2-28.2,1.2-28.2s7.8-13.5,22.8-18.1s24.2-8.1,24.2-8.1
		s24.5-7,21.4-28.2s-43-23.5-43-23.5s-14.9-0.5-25.6-9.3s-13.6-19.7-13.6-19.7s-4.3-18.1,7-33.1S232.8,103.7,232.8,103.7z"/>
</g>
<g id="rod">
	<g id="snakeRod">
		<path d="M232.8,103.7L232.7,62c0,0-1.4-8.7,12-15.2c12.1,2.8,12.1,14,12.1,14l1,69.8l-1.2,145.8l-4.4,143.5c0,0,0.4,12.4-6.9,18.9
			c-6.2-5.5-7.4-16.5-7.4-16.5l-2.1-66.7l-2.6-78.2l-1.5-96.2L232.8,103.7z"/>
	</g>
</g>
</svg>
