<?xml version="1.0" encoding="utf-8"?>
<!-- Generator: Adobe Illustrator 23.0.1, SVG Export Plug-In . SVG Version: 6.00 Build 0)  -->
<svg id="wholeScope" class="icons" version="1.1" xmlns="http://www.w3.org/2000/svg" xmlns:xlink="http://www.w3.org/1999/xlink" x="0px" y="0px"
	 viewBox="0 0 111.51 209.79" style="enable-background:new 0 0 111.51 209.79;" xml:space="preserve">
<style type="text/css">
	.st0{fill:#000000;stroke:#000000;stroke-width:2;stroke-miterlimit:10;}
	.st1{fill:#000000;}
	.st2{fill:#000000;}
    
    #wholeScope:hover .st0 {fill:#1FD0E0;}
    #wholeScope:hover .st1 {fill:#1FD0E0;}
    #wholeScope:hover .st2 {fill:#1FD0E0;}
</style>
<defs>
    <script xlink:href="../js/main.js" type="text/javascript">
    </script>
</defs>
<g id="stethMetal">
	<circle class="st0" cx="90.59" cy="63.92" r="13.45"/>
	<path class="st1" d="M13.21,61.15l4.6,0.77c0,0,4.85-13.79,1.53-32.68s0.26-20.17,0.26-20.17s4.77-7.66,16.6-1.53
		c-0.51-3.57,0.26-6.13,0.26-6.13S21.8-4.55,13.72,8.05c-4,7.32,1.53,26.3,1.53,26.3S18.06,43.79,13.21,61.15z"/>
	<path class="st2" d="M57.38,13.49c0,0,24.68-0.87,12.6,18.53C54.66,47.34,50.4,65.07,50.4,65.07l-3.23,9.02l4.94,1.36
		c0,0,5.62-26.04,18.55-36.43C79.85,31.88,85.8,8.9,58.06,8.05L57.38,13.49z"/>
</g>
<g id="stethRubber">
	<path d="M36.19,7.54c0,0,3.66,4.26,6.04,4.26c2.38,0,4.09-3.91,4.09-3.91s1.4-2.83-3.4-4.6c-4.59-1.68-6.47-1.87-6.47-1.87
		S35.17,5.3,36.19,7.54z"/>
	<path d="M57.38,13.49c0,0-1.5,1.57-5.11,1.45C49.85,15.29,48,13.6,48,13.6s-3.13-2.62,1.09-5.68s9.03-0.03,9.03-0.03L57.38,13.49z"
		/>
	<path d="M13.21,61.15c0,0-3.4,11.91-4.09,22.21c-0.66,9.96,4.98,17.62,13.91,19.66c8.94,2.04,19.15-6.64,19.15-6.64
		s6.94-7.15,9.91-20.94c-4.94-1.36-4.94-1.36-4.94-1.36s-6.64,22.04-15.32,23.19C20.1,99.45,17.8,93.71,17.8,93.71
		s-1.91-3.09-2.48-7.35c-0.39-2.88,0.38-6.29,0.69-9.63c0.77-8.3,1.79-14.81,1.79-14.81L13.21,61.15"/>
	<path d="M9.55,112.13c0,0-7.23-9.7-3.83-21.87c3.36-12.01,4.87-17.87,4.87-17.87l1.26,20.68c0,0-2.23,7.02,3.98,15.7
		c4.68-1.11,12.62-3.79,14.66-6.94c2.04-3.15,14.64-9.4,14.64-9.4s-9.77,16.69-23.68,21.06C8.03,117.71,9.55,112.13,9.55,112.13z"/>
	<path d="M91.08,78.94c0,0-6.98-32.6,7.91-3.06c11.15,35.49,12,56.26,12,56.26s2.7,16.68-4.28,39.83s-31.64,33.51-31.64,33.51
		s-17.55,8.44-37.45,1.72C0.57,194.68-4.66,172.6,3.08,134c5.96-23.66,5.19-24.17,5.19-24.17l15.02,2.96
		c0,0-12.08,16.14-13.83,37.89c-2.26,28.04,8.09,40.21,25.19,46.72c17.11,6.51,31.28,3.3,31.28,3.3s12.13-3.06,19.79-10.85
		c7.66-7.79,12.13-16.34,12.13-16.34s8.83-20.06,5.51-43.3S91.08,78.94,91.08,78.94z"/>
</g>
</svg>
